<mxfile host="app.diagrams.net" modified="2024-03-18T16:58:37.306Z" agent="Mozilla/5.0 (Windows NT 10.0; Win64; x64) AppleWebKit/537.36 (KHTML, like Gecko) Chrome/122.0.0.0 Safari/537.36" version="24.0.7" etag="olC3mpvWw7U_LCcDXT39" type="github">
  <diagram name="第 1 页" id="f4n1Egpfk5nWVcU18C_i">
    <mxGraphModel>
      <root>
        <mxCell id="0" />
        <mxCell id="1" parent="0" />
      </root>
    </mxGraphModel>
  </diagram>
</mxfile>
